<?xml version="1.0" encoding="UTF-8"?>
<svg xmlns="http://www.w3.org/2000/svg" version="1.1" viewBox="0 0 161.12 80">
  <defs>
    <style>
      .cls-1 {
        fill: #010101;
      }
    </style>
  </defs>
  <!-- Generator: Adobe Illustrator 28.7.1, SVG Export Plug-In . SVG Version: 1.2.0 Build 142)  -->
  <g>
    <g id="Calque_1">
      <g>
        <path class="cls-1" d="M153.8,56.86c-.47-1.44-2.02-2.22-3.46-1.75-.31.1-31.26,10.13-71.82,10.13S9.22,54.92,8.94,54.82c-1.42-.52-2.99.21-3.51,1.63-.52,1.42.21,2.99,1.63,3.51,1.2.44,29.93,10.76,71.47,10.76s72.24-9.98,73.53-10.41c1.44-.47,2.22-2.02,1.74-3.46Z"/>
        <path class="cls-1" d="M7,43.84h0c.18.14.42.21.72.21h17.42c1.47,0,2.87-.28,4.16-.83,1.29-.55,2.43-1.31,3.38-2.25.95-.94,1.71-2.05,2.27-3.28.55-1.23.83-2.55.83-3.93,0-.82-.11-1.62-.33-2.4-.22-.78-.53-1.53-.92-2.22-.39-.7-.87-1.35-1.42-1.96-.31-.34-.65-.67-1-.97-.51-.43-.58-1.16-.16-1.67.52-.63.95-1.33,1.28-2.09.48-1.08.72-2.26.72-3.5,0-1.36-.27-2.64-.81-3.81-.54-1.17-1.28-2.2-2.21-3.07l-.02-.02c-.93-.86-2.04-1.54-3.29-2.04-1.26-.5-2.63-.76-4.07-.76H7.71c-.67,0-.97.29-.97.94v33c0,.29.08.5.25.63ZM13.72,15.9c0-.68.58-1.23,1.3-1.23h7.16c.69,0,1.34.11,1.92.33.59.22,1.1.53,1.52.92.42.39.75.87.99,1.41.24.54.36,1.13.36,1.75s-.12,1.24-.37,1.78c-.24.55-.59,1.03-1.02,1.43-.43.4-.95.72-1.54.95-.59.23-1.24.34-1.94.34h-3.11c-.53,0-.96.4-.96.89v3.32c0,.49.43.89.96.89h3.36c.36,0,.72.02,1.07.06.36.04.7.08,1.02.13h.01c.59.1,1.15.29,1.65.58.5.28.95.64,1.31,1.07.37.42.66.91.87,1.43.21.53.32,1.08.32,1.64,0,.6-.11,1.18-.31,1.72h0c-.21.55-.5,1.05-.88,1.49-.37.44-.82.81-1.33,1.1-.51.29-1.06.48-1.65.56h-.02c-.32.06-.67.11-1.01.13-.34.02-.69.04-1.05.04h-7.34c-.72,0-1.3-.55-1.3-1.23V15.9Z"/>
        <path class="cls-1" d="M126.99,31.99v21.01s.02.06.03.08c.02.01.04.03.08.02l5.44-.75s.09-.05.09-.1l.08-10.34.75.42c1.84,1.02,3.93,1.55,6.04,1.55,6.9,0,12.51-5.61,12.51-12.51s-5.61-12.51-12.51-12.51-12.51,5.61-12.51,12.51c0,.15,0,.63,0,.63ZM139.5,24.64c3.7,0,6.71,3.01,6.71,6.71s-3.01,6.71-6.71,6.71-6.71-3.01-6.71-6.71,3.01-6.71,6.71-6.71Z"/>
        <path class="cls-1" d="M110.69,18.85c-6.9,0-12.51,5.61-12.51,12.51v24.68c0,.1.06.17.09.2.03.03.1.08.21.06l5.12-.71c.13-.02.22-.13.22-.26l.09-13.42.75.41c1.84,1.01,3.92,1.55,6.03,1.55,6.9,0,12.51-5.61,12.51-12.51s-5.61-12.51-12.51-12.51ZM110.69,38.07c-3.7,0-6.71-3.01-6.71-6.71s3.01-6.71,6.71-6.71,6.71,3.01,6.71,6.71-3.01,6.71-6.71,6.71Z"/>
        <path class="cls-1" d="M63.35,36.03h-6.79c-1.28,1.32-2.98,2.04-4.82,2.04-.01,0-.02,0-.03,0-.01,0-.02,0-.03,0-1.48,0-2.89-.47-4.06-1.37-1.14-.87-1.98-2.1-2.38-3.47l-.19-.65h14.15s.02,0,.03,0h4.3c.4,0,.74-.31.75-.71,0-.17.01-.34.01-.52,0-5.99-4.26-11.15-10.13-12.28h0s-.04,0-.07,0h-.04c-.77-.15-1.55-.22-2.32-.22-.16,0-.31,0-.47,0-6.49.25-11.77,5.52-12.01,12.01-.13,3.44,1.11,6.69,3.49,9.16,2.38,2.47,5.58,3.83,9.01,3.83,5.13,0,9.71-3.12,11.61-7.84ZM45.7,27.45c1.19-2.14,3.44-3.46,5.88-3.46s4.69,1.33,5.88,3.46l.42.76h-12.59l.42-.76Z"/>
        <path class="cls-1" d="M93.77,21.73c0-.95-.77-1.72-1.72-1.72h-1.49c-.95,0-1.72.77-1.72,1.72v.11c-2.26-1.94-5.1-3-8.13-3-6.9,0-12.51,5.61-12.51,12.51s5.61,12.51,12.51,12.51c3.09,0,6.05-1.13,8.35-3.2l.3-.27,3.79,2.68c.17.12.34.06.4.03.06-.03.21-.13.21-.34v-18.11s0-.03,0-.04v-2.87ZM80.72,38.07c-3.7,0-6.71-3.01-6.71-6.71s3.01-6.71,6.71-6.71,6.71,3.01,6.71,6.71-3.01,6.71-6.71,6.71Z"/>
      </g>
    </g>
  </g>
</svg>